<svg xmlns="http://www.w3.org/2000/svg" viewBox="0 0 170.9 59.31"><defs><style>.cls-1{fill:#5e5e5d;}.cls-2{fill:#dddada;}.cls-3{fill:#df3031;}.cls-4{fill:#faf9f9;}</style></defs><g id="Layer_2" data-name="Layer 2"><g id="Layer_1-2" data-name="Layer 1"><path class="cls-1" d="M22.13,42.51c-2.46-2.22-5.44-3.84-7.71-6.29,5.44-6.51,5.44-6.51,4.66-8.09-2.28,2.21-4,5-7.1,6.58-1.75-1.49-3.34-3.06-5.15-4.33C5.21,29.24,4.61,26.5,1.5,26.94c2,4,6,5.82,8.39,9.29-2.74,2.14-5.3,4.26-8,6.21A4,4,0,0,0,0,46a6,6,0,0,1,1.61-.63,79.33,79.33,0,0,1,10.46-7.82,90.78,90.78,0,0,1,10.42,7.78l1-.15C24.15,43.72,22.93,43.23,22.13,42.51Z"/><path class="cls-2" d="M170.9,56.48c-3.77-.94-7.57.25-11.35-.17,1.42-1.2,3.34-1.29,4.91-2.23,2.2-1.32,3.8-2.94,3.93-5.64l2.51-.11Z"/><path class="cls-2" d="M143.27,58.09c.13-1.4-.09-2.5-1.9-2.35-.49,0-1,0-1.49,0l-86.7,0c-1-2.31-.87-4.81-1.27-7.21,1.23-.07,2.47-.2,3.71-.2q44.19,0,88.38,0c1.07,0,2.21-.35,3.7.66H53a3.82,3.82,0,0,0,2.88.78q45.87,0,91.74,0c2.56,0,4.4-1.48,6.41-2.67l1.36,1.28c-2.1,2.15-4.17,4.34-7.24,5.15-1.22-1.25-2.79-.8-4.23-.8q-42.25,0-84.51,0c-1.19,0-2.45-.37-4.24.74h88.41c1.48,0,3,.14,4.45.22A10,10,0,0,1,143.27,58.09Z"/><path class="cls-1" d="M155.4,48.44,154,47.16c-1.91-2.74-3.79-5.49-5.75-8.2-3.86-5.33-7.14-5.74-12.5-1.72a18.27,18.27,0,0,0-4.87,5.53c-.45.78-.76,1.57-2,1.25-1-.63-.64-1.71-.7-2.64a40.18,40.18,0,0,0-.25-4.8c-.53-2.83-2.06-3.47-4.5-2a6.62,6.62,0,0,0-3,3c.68,2.25,3.07,4,3.08,6.9-2.28.65-3.67-.86-5.09-1.79a26,26,0,0,0-15.94-4.09,21,21,0,0,0-11.44,3.94c-3.3,2.33-6.75,4.13-11,3.67a13.45,13.45,0,0,1-7.16-2.84c-4-3.12-4.52-6.56-1.93-11,4.64-.8,9.26-1.55,13.95-.47,3.76.87,6.76,2.52,7.52,7,8.57-3.2,17-3.41,25.18.82.33.3.69.65,1.08.2.11-.13-.13-.55-.22-.84-4.19-6.69-10.37-11.21-17.07-15.3,4-.06,6.91,2.14,9.66,4.39s5.24,4.86,7.84,7.3c6-5.39,10.17-5.83,11.55,3.12,1.05.27,1.4-.72,2-1.18,1-.75,1.87-1.63,2.89-2.33,6-4.14,10.52-3.38,14.48,2.64a91,91,0,0,0,7,9.56A1.23,1.23,0,0,1,155.4,48.44ZM71.89,34.66c-.8,3.6-.06,5.77,2.76,7.53A11.65,11.65,0,0,0,87,42.74c1.76-1,3.47-2.13,3.23-4.5-.21-2.17-1.9-3.11-3.68-3.74A20.94,20.94,0,0,0,71.89,34.66Z"/><path class="cls-3" d="M27,42.41a1.12,1.12,0,0,0-1-.67,1.13,1.13,0,0,0-1.19-.94l0,0a.75.75,0,0,0-.76-.78h0a8.47,8.47,0,0,0-1.61-2.81l0-.07,0-4.37,0-.06a1.35,1.35,0,0,0,.71-1.46l1.47-.84c5-.17,10-.77,15,.6a.61.61,0,0,0,.66.25,1.46,1.46,0,0,0,1.47.78,1,1,0,0,0,.82.72.64.64,0,0,0,.69.68l0,.07,1,3.65-.23,1.47a23.5,23.5,0,0,1-5.21,4.49l-.76.23a27.37,27.37,0,0,1-8.28.2A2.74,2.74,0,0,0,28,43,1,1,0,0,0,27,42.41Z"/><path class="cls-1" d="M51.91,48.55c.4,2.4.31,4.9,1.27,7.21-.19.91.38,2-1.07,3.07-2.36-3.84-1.52-8.32-2.65-12.16-2.43-.83-4.6,1.54-7.17.1,1.86-2.34,4.75-1.57,7-3.06A350.7,350.7,0,0,1,47.1.06L48.62,0c.9,8.32.39,16.74,1,25,1.35.57,2.45,0,3.55.07,1.73.07,3.5,0,4.65,1.7s-.23,2.94-1.13,4.38A19.14,19.14,0,0,1,63.21,35c2.69,2.74,2.38,4.81-.86,6.81s-7,2.39-10.37,3.81A3.83,3.83,0,0,0,51.91,48.55ZM63.05,39c-2.48-5.16-7.47-7.09-12.68-5.16.36,3.07.29,6.23,1.06,9.54A30.12,30.12,0,0,0,63.05,39ZM50.49,31.46c2.31-.75,4.69-1,5.75-3.74-2.11-1.16-4.05-.86-6.13-.13A7.27,7.27,0,0,0,50.49,31.46Z"/><path class="cls-3" d="M155.4,48.44a1.23,1.23,0,0,0,1.46-1.15c2.41-1.23,4.84-2.25,4.71-5.75-.07-1.93,2.66-1.49,3.56-2.83,2.25,2.18,2.27,2.37.66,5.86.85,1.25,1.73,2.56,2.6,3.87-.13,2.7-1.73,4.32-3.93,5.64-1.57.94-3.49,1-4.91,2.23l-1.31.38a6.82,6.82,0,0,0-4.15,1.07,2,2,0,0,0-1.85.27,2.45,2.45,0,0,0-2.27.46l-1.43.27c-1.47-.28-2.84.25-4.25.49-.79.14-1.47.08-1.2-1l.18-.13A10,10,0,0,0,148,53.75l.12-.16C151.23,52.78,153.3,50.59,155.4,48.44Z"/><path class="cls-2" d="M39.68,31.06c-5-1.37-10-.77-15-.6,4.21-1.08,6.82-3.88,8.45-7.8-1.15-.58-2.38-.23-3.57-.24-4.42,0-4.42,0-5.32-4.32-3,.06-6.14,1.69-9-.32-.07-.8.16-1.21.69-1.37a37.87,37.87,0,0,1,10.52-1.29c2.61-.06,2,2.22,1.61,4.21,2.38,0,4.69,0,7,0,1.68,0,3,.39,3,2.37,0,1.63-.16,3.24-2.26,3.65-1.46.28-2.88.64-3.58,2.12.34,1.55,1.57,1.32,2.59,1.68C36.52,29.71,38.72,28.92,39.68,31.06Z"/><path class="cls-2" d="M38.94,43.17a23.5,23.5,0,0,0,5.21-4.49,3.3,3.3,0,0,1-2.63,4.4A13.8,13.8,0,0,1,38.94,43.17Z"/><path class="cls-2" d="M29.9,43.6a27.37,27.37,0,0,0,8.28-.2c0,.12,0,.29-.1.34C36.09,45.09,32,45,29.9,43.6Z"/><path class="cls-2" d="M22.5,32.82l0,4.37-2.12-1.9C20.29,33.45,21.08,32.82,22.5,32.82Z"/><path class="cls-2" d="M44.38,37.21l-1-3.65C45.74,34.22,45,35.74,44.38,37.21Z"/><path class="cls-2" d="M22.49,37.26a8.47,8.47,0,0,1,1.61,2.81C21.79,40.13,22.65,38.41,22.49,37.26Z"/><path class="cls-2" d="M23.23,31.3a1.35,1.35,0,0,1-.71,1.46C22.43,32.12,22.51,31.56,23.23,31.3Z"/><path class="cls-2" d="M41.81,32.09a1.46,1.46,0,0,1-1.47-.78C41,31.26,41.62,31.28,41.81,32.09Z"/><path class="cls-2" d="M24.8,40.8a1.13,1.13,0,0,1,1.19.94C25.39,41.69,24.86,41.54,24.8,40.8Z"/><path class="cls-2" d="M24.07,40.06a.75.75,0,0,1,.76.78A.72.72,0,0,1,24.07,40.06Z"/><path class="cls-2" d="M27,42.41A1,1,0,0,1,28,43,.92.92,0,0,1,27,42.41Z"/><path class="cls-2" d="M43.32,33.49a.64.64,0,0,1-.69-.68A.66.66,0,0,1,43.32,33.49Z"/><path class="cls-4" d="M71.89,34.66a20.94,20.94,0,0,1,14.65-.16c1.78.63,3.47,1.57,3.68,3.74.24,2.37-1.47,3.55-3.23,4.5a11.65,11.65,0,0,1-12.34-.55C71.83,40.43,71.09,38.26,71.89,34.66Z"/><path class="cls-4" d="M118.52,39.09c.09.29.33.71.22.84-.39.45-.75.1-1.08-.2Z"/><path class="cls-4" d="M63.05,39a30.12,30.12,0,0,1-11.62,4.38c-.77-3.31-.7-6.47-1.06-9.54C55.58,31.89,60.57,33.82,63.05,39Z"/><path class="cls-2" d="M50.49,31.46a7.27,7.27,0,0,1-.38-3.87c2.08-.73,4-1,6.13.13C55.18,30.48,52.8,30.71,50.49,31.46Z"/></g></g></svg>