<svg xmlns="http://www.w3.org/2000/svg" viewBox="0 0 268.77 89.2"><defs><style>.cls-1{fill:#dc2429;}.cls-2{fill:#dc2529;}.cls-3{fill:#353232;}</style></defs><g id="Layer_2" data-name="Layer 2"><g id="Layer_1-2" data-name="Layer 1"><path d="M183.39,59.81a12.4,12.4,0,0,0-2.63-4c-6.54-7.71-13.7-14.67-23.24-18.68a9.79,9.79,0,0,1-.89-.5.82.82,0,0,1,.11-1.06c.22-.29.47-.54.85-1,10.44,3.43,17.67,11.1,25,19,1.71-1.3,3-3,4.84-4,1.11-.54,2.15-1.25,3.29-1.69,3-1.16,5.29-.25,6.9,2.51a16.68,16.68,0,0,1,1.71,6.36c.12.84-.16,1.75.52,2.64a45.57,45.57,0,0,1,5.5-5.44,27.81,27.81,0,0,1,8.07-4.51,10.78,10.78,0,0,1,11.06,2.32c3.14,2.72,5.21,6.24,7.36,9.7a48.62,48.62,0,0,0,7.35,9.31c.05,1.51-1.09,1.37-2.06,1.45l-.82-.44a66.14,66.14,0,0,1-7.67-10.46,48,48,0,0,0-4.08-5.76c-3.17-4-7.85-5.2-12.59-2.7a25.92,25.92,0,0,0-11.73,11.46c-.83,1.65-.89,1.62-3.35,1.33-.91-4.91,1.1-10.39-2.33-14.87-3.76-.8-6.63.78-10,5.45,1.63,3.33,4.83,5.92,5.1,9.94-1.3,1.09-2.42.66-3.53,0-1.37-.83-2.79-1.6-4.12-2.5a34.43,34.43,0,0,0-15.46-5.8A40,40,0,0,0,147.19,60c-3.38,1.33-6.14,3.71-9.18,5.61-7.19,4.52-14.49,4.68-21.75.43-4.1-2.41-7.15-5.77-7.16-11,0-2.89.67-4.44,3.32-7.48a6.85,6.85,0,0,0,4.75,0c5.91-1.67,11.82-.8,17.56.89a12.12,12.12,0,0,1,7.32,5.39c.83,1.42.35,3.23,1.68,4.6a41.77,41.77,0,0,1,18.18-3.7c6.51.25,12.8,1.35,18.47,4.77.77.46,1.62.43,2.34.88.33.41.41,1.1,1.17,1.05.23.68.61.85,1.24.35L184,60.63Zm-70.9-8.13c-1.5,4.42-.21,8,3.13,10.73,5.38,4.42,11.53,4.84,17.91,2.61a15.58,15.58,0,0,0,4.4-2.74c3.33-2.68,3.35-6,.25-8.86a11.29,11.29,0,0,0-4.57-2.36A33.26,33.26,0,0,0,112.49,51.68Z"/><path class="cls-1" d="M41.46,45.78c2,.72,3.93.3,5.79-.08a31.91,31.91,0,0,1,18.83,1.71A8.26,8.26,0,0,1,71.66,56c-.26,3.2-2.49,5.17-4.83,6.66-7.08,4.53-14.46,4.4-21.58.13a11.53,11.53,0,0,1-5.83-12.61C39.7,48.54,40.73,47.33,41.46,45.78Z"/><path d="M84.35,80.91a17.35,17.35,0,0,0,.55,5.52,5.25,5.25,0,0,1-1,1c-.25.16-.7,0-1.24,0-2.42-5.82-2.57-12-2.85-18.49-3.51.23-6.58,1.54-9.7,2.08-.61-.4-1.2-.68-1.3-1.73,2.77-2.51,6.82-1.89,10.16-3.52.53-1.1.19-2.35,0-3.53-.61-5-1.43-10-1.4-15.07,0-1.7-.93-3-1.31-4.65,1-2.46.72-5.1.45-7.64-.69-6.42-.42-12.86-.71-19.28-.21-4.44-.46-8.88-.39-13.32,0-2,0-2,2.2-2.34.67.55.57,1.32.59,2.06.23,9.15.42,18.31.71,27.46.08,2.69.41,5.36.63,8.17h6.75a6.74,6.74,0,0,1,3.59.78c2.61,1.55,3.06,3.85,1.11,6.16a18.46,18.46,0,0,1-1.65,1.52c.72,1.12,1.92,1.15,2.86,1.6a28.21,28.21,0,0,1,6.6,4.12c2.22,2,4,4.13,2.89,7.92-5,5-12.34,5.89-19.19,8.17a14.45,14.45,0,0,0,.7,7.07,1.79,1.79,0,0,0,.17.68c-.12,1.55-.39,3.12.58,4.53A2.55,2.55,0,0,0,84.35,80.91ZM81.91,65.54c6.56-2.13,12.84-3.09,17.7-7.29,0-3.39-2.44-4.77-4.52-6.17a15.62,15.62,0,0,0-14.63-2C80.92,55,81.39,60,81.91,65.54ZM80.3,46.7c5.09,0,8.52-2,9.3-5.55-3.24-1.92-6.45-1.27-9.75,0C80,43.11,79.63,45,80.3,46.7Z"/><path class="cls-1" d="M237.17,72.25c1-.08,2.11.06,2.06-1.45,2.68-.76,4.29-3.1,6.6-4.35a5.12,5.12,0,0,0,0-3.26c-.28-1.31.05-2.34,1.67-2.42a3.2,3.2,0,0,0,.11,1,.61.61,0,0,0,.86.31.62.62,0,0,0,0-1.12c-.26-.18-.67-.12-1-.17l.22-1.25c1.69-.13,3.53-.18,3.94-2.57,1.15.77,1.68,2.07,3.11,1.87-1.23,1.65-.2,3.45-.72,5.28l-2.23,2.43c1,2.25,4.09,3.2,4.22,6.08-.21.47,0,.73.45.83l-.06,1.42c-.47.09-.6.39-.56.82a.82.82,0,0,0-.16.61c-.79.22-.74.91-.84,1.52l-2.09,1.6a2.14,2.14,0,0,0-1.58,1.42c-.88-.17-1.47.45-2.15.8a2.49,2.49,0,0,0-1.69,1.37,4.69,4.69,0,0,0-1.47.13C240.65,85.48,235,86,229.58,87.32a62.78,62.78,0,0,1-9.09,1.31c-.65-.24-1.5-.16-1.78-1,1.07-1.81,3.31-2.46,4.32-4.32a1.27,1.27,0,0,0,1.41-.79c.58,0,1.19,0,1.38-.75a2.92,2.92,0,0,0,1.58-1.51l1.38-.78A2.29,2.29,0,0,0,230.36,78l3-2.24a1,1,0,0,0,.84-.72c.58,0,1.19,0,1.36-.78A2.4,2.4,0,0,0,237.17,72.25Z"/><path d="M21.47,54C16.76,49.66,12,46.09,8.27,41.49c-.16-1.14.44-1.67,1.51-2.15,4.47,4.3,8.64,9.07,14.05,12.76,2.38-1.05,4-3.18,5.94-4.79s2.46-4.53,5.22-5.17a2.37,2.37,0,0,1-.13,3.31c-2,2.55-3.93,5.09-6.68,6.89-.61.4-1.14.92-1.95,1.59,4.05,3.2,7.82,6.16,11.57,9.14a30.92,30.92,0,0,1,2.83,2.4c.6.6.51,1.35-.46,2.15-3.33-.94-5.31-4-8.12-5.91s-5.36-3.9-8.07-5.89C15.75,60.69,9.06,67.15,2,72.69a2.08,2.08,0,0,1-2-1.61A205.57,205.57,0,0,1,21.47,54Z"/><path d="M237.17,72.25a2.4,2.4,0,0,1-1.65,2,1,1,0,0,0-1.06-.78c-1,0-2,0-3,0H84.62c1.21-1,2.54-.72,3.81-.73q72,0,143.94,0c1,0,2,0,3,0,.58,0,.85-.4,1-.91Z"/><path d="M234.16,75a1,1,0,0,1-.84.72c-1.12,0-2.24,0-3.36,0H83.65a1.79,1.79,0,0,1-.17-.68c.87,0,1.74-.07,2.61-.07H231.54C232.41,75,233.28,75,234.16,75Z"/><path d="M227.4,80.22a2.92,2.92,0,0,1-1.58,1.51,1,1,0,0,0-1-.82H84.35a2.55,2.55,0,0,1-.12-.67c1.37,0,2.74-.07,4.11-.07H212.82C217.68,80.17,222.54,80.2,227.4,80.22Z"/><path d="M224.44,82.48a1.27,1.27,0,0,1-1.41.79c-1.36,0-2.73-.11-4.1-.11H86.1c.46-1.17,1.27-.72,1.83-.72q67.69,0,135.39,0C223.69,82.41,224.07,82.46,224.44,82.48Z"/><path class="cls-2" d="M46.93,23.6a1.8,1.8,0,0,1,1.57,1.87c-.25,1.43-1.34,1.79-2.2,2.21a1.56,1.56,0,0,0,1.24,1.75c1.56.18,3.15.1,4.73.13l-.07.87c-1.61,1.41-3.51.14-5.13.66a4.62,4.62,0,0,1-2.37-2.31c0-2.13,2.49-2.48,2.3-4.34Z"/><path class="cls-2" d="M42.47,24.37c-.55,1.48-1.94.64-2.88.9-2.27.63-4.55,1.53-7,1.24-.74-.41-.65-1.3-1.14-1.83.08-.08.16-.21.24-.21a72.41,72.41,0,0,0,10.81-.88Z"/><path d="M247.29,83.06A2.49,2.49,0,0,1,249,81.69c.29,1.06,1.16.7,1.83.7,5,0,9.91,0,14.86,0a3.94,3.94,0,0,1,3.1.73H257.69Z"/><path class="cls-2" d="M61.22,31l1.14.16c.57,1,.31,2.14.22,3.31a9.54,9.54,0,0,1-7.46,3.28c1.67-2.33,5-1.6,6-4.57V31.05Z"/><path d="M251.13,80.89a2.14,2.14,0,0,1,1.58-1.42c.22.8.86.7,1.49.7,3.49,0,7,0,10.46,0,.69,0,1.48-.33,2.32.7Z"/><path class="cls-2" d="M52.2,30.43l.07-.87c2,.15,3.76-1.07,5.8-.73,1,.17,1.91.37,2.35,1.42h0A53.69,53.69,0,0,0,52.2,30.43Z"/><path d="M255.69,77.94h8.8a22.49,22.49,0,0,1-8.43.57c-.14,0-.24-.38-.36-.58Z"/><path d="M255.8,75.74c0-.43.09-.73.56-.82h5.84v.68Z"/><path d="M256.42,73.5c-.46-.1-.66-.36-.45-.83h4.75c-.6,1.23-1.46.69-2.14.78A17.18,17.18,0,0,1,256.42,73.5Z"/><path class="cls-2" d="M218.71,87.59c.28.88,1.13.8,1.78,1-1,1-2.23.32-3.55.49C217.25,88,217.8,87.6,218.71,87.59Z"/><path class="cls-2" d="M42.47,24.37l0-.78h4.42l.07.84A15.28,15.28,0,0,0,42.47,24.37Z"/><path class="cls-2" d="M53.34,40.53c-.45-.35-.48-.78-.15-1,.53-.29.5.22.47.52S53.45,40.39,53.34,40.53Z"/><path class="cls-3" d="M254.8,77.87c.1-.61,0-1.3.84-1.52,0,.53,0,1.06.05,1.59h0Z"/><path class="cls-2" d="M60.42,30.25a.78.78,0,0,1,.8.73l-.06.07a.8.8,0,0,1-.74-.8Z"/><path class="cls-2" d="M54.35,38.11c-.09.08-.22.25-.27.23-.35-.16-.34-.36,0-.49C54.16,37.83,54.27,38,54.35,38.11Z"/><path class="cls-3" d="M184,60.63l1.15,1.24c-.63.5-1,.33-1.24-.35Z"/><path d="M227.4,80.22c-4.86,0-9.72,0-14.58,0H88.34c-1.37,0-2.74,0-4.11.07-1-1.41-.7-3-.58-4.53H230c1.12,0,2.24,0,3.36,0l-3,2.24c-.24,0-.49,0-.74,0q-71.19,0-142.37,0c-.58,0-1.41-.5-2,.71H224.72c1,0,2,0,3,0a1,1,0,0,1,1.07.77Z"/><path d="M247.43,60.83c.35.05.76,0,1,.17a.62.62,0,0,1,0,1.12.61.61,0,0,1-.86-.31,3.2,3.2,0,0,1-.11-1Z"/></g></g></svg>