<svg xmlns="http://www.w3.org/2000/svg" viewBox="0 0 673.19 623.72"><defs><style>.cls-1{fill:#ae3f42;}.cls-2{fill:#2c2c2c;}</style></defs><g id="Layer_2" data-name="Layer 2"><g id="Layer_1-2" data-name="Layer 1"><path d="M360.14,431.54c1.71-58.4,1.4-116.83,2.4-175.23,0-3.27-.61-4.3-4.05-4-7.08.65-14.2.9-21.31,1.13-2.32.07-3.33.82-3.58,3.19a29.3,29.3,0,0,1-3,10.35,5,5,0,0,0-.29,3.95c2.68,9,.93,17.89-1.11,26.58-1.11,4.71-5.56,7.51-9.75,9.9-6.05,3.45-12.45,6.26-18.2,10.3-4.39,3.08-9.6,2.15-14.56,2-8.12-.32-8.05-.38-7.12,7.59,4.93,42.39,10.93,84.62,17.07,126.84,4,27.77,8.84,55.43,12,83.31,2.56,22.43,4.52,44.94,6.67,67.42a32.76,32.76,0,0,1-.17,6.71c-.58,5-3.17,7.85-8.22,8a231.44,231.44,0,0,0-34.74,3.79c-7.6,1.4-13.72-1.31-18.36-7.45-.45-.59-.95-1.15-1.44-1.72-3.21-3.78-2.85-3.35-6.5-.31-4.83,4-10.3,7.54-16.87,7.79-8.11.31-16.13-1.25-24.21-1.85-1.6-.12-3.22,0-4.83,0-6.14,0-8.8-2.28-10-8.35-2.5-12.89-3.11-26-4.17-39-2.27-27.75-6.94-55.2-10.46-82.79-4.33-34-10.1-67.85-15.39-101.74-1.06-6.81-.95-6.78-6.75-3.44-13.94,8-28.28,15.31-42.55,22.72-4.82,2.5-9.68,2.14-14.55.66-13.66-4.18-26.3-10.75-39-17.13-7.23-3.64-14.61-7-21.44-11.42-6.42-4.15-9.75-9.74-8.88-17.59,1.78-16.28,4.31-32.4,9.68-47.93,2.13-6.14,7.41-9.58,12.6-12.8,22.58-14,46-26.51,69.27-39.24,5.8-3.17,11.7-6.14,17.62-9.05,1.91-.94,3-1.89,2.64-4.24a8.28,8.28,0,0,1,3.4-8.22c1.87-1.4,2.15-3.06,2.14-5.19,0-11.72-.91-23.46.76-35.15a7,7,0,0,1,2.17-4.62c5.88-4.76,12.29-8.18,20.24-6.48s16.12,1.68,24.11,3.09c2,.35,2.72-.3,2.44-2.39-.69-5.32-1.25-10.66-1.83-16-.19-1.75-1-2.46-2.83-2.72q-52.81-7.47-105.59-15.12a45.57,45.57,0,0,1-13.27-3.79C58.58,146.23,46.83,140.48,36,133c-2.24-1.55-4.58-3.06-5.65-5.82a2.82,2.82,0,0,0-1.22-1.29c-9.95-5.45-17.88-13.39-25.92-21.16A10.58,10.58,0,0,1,.08,95.57c.47-4.47.88-8.95,1-13.44.37-11,6.6-18.15,15.17-23.88C37,44.42,59.43,34.62,83.14,27.2c15.15-4.74,29.82-2.65,44.66.61s29.46,6.53,44.17,9.85c2.55.58,2.94-.2,2.58-2.67-.73-5-1.89-10.06-.91-15.23a11.42,11.42,0,0,1,3.5-6.84,34.53,34.53,0,0,0,3.89-4c6.34-7.79,14.72-9.67,24.21-8.61,6.56.74,13.15,1.23,19.58,2.84a5.51,5.51,0,0,0,1.86.07C236,2.25,243,8,244.07,17.38c1.12,10.16,2.36,20.32,3.32,30.5.25,2.65,1.25,3.56,3.79,3.93q44.63,6.52,89.21,13.26c9,1.36,18.14,2,26.91,4.47,3.16.91,6.06,1.81,9.3.48a6.38,6.38,0,0,1,3.69-.31c5.81,1.37,11.34-.07,16.84-1.55,14.28-3.83,31.69,9.48,33.07,20.27.85,6.6.07,13.21.09,19.81,0,3.5-.09,7-.32,10.48-.15,2.22.35,3.2,2.87,2.88,19.53-2.51,39.24-4,58.41-8.71,9.85-2.43,19.05-.55,28.31,2.2a97.81,97.81,0,0,1,28.27,14.12c1.93,1.36,3.74,3,5.87,4,14.41,6.19,26.12,16.33,38.18,25.94,4.21,3.36,4.44,5.57,2,10.46-5.62,11.16-14.6,19.5-23.78,27.58-4.58,4-9.55,7.61-14.4,11.31-1.58,1.21-2.64,2.15-.83,4.11,2.19,2.37,1.71,5.37,1.15,8.19-1.35,6.72-2.69,13.45-4.31,20.1-.6,2.49,0,3.63,2.33,4.45,23.54,8.19,46.4,18.23,70.14,25.88a29.8,29.8,0,0,1,15.19,10.94c11.6,15.64,21.38,32.43,31.08,49.25,5,8.58,3.3,13.41-5.3,18.58-3.73,2.25-7.39,4.68-12,4.6-1.76,0-3,1.26-4.07,2.43a19.11,19.11,0,0,1-9.25,5.29,348.53,348.53,0,0,1-47.5,10.27,55.08,55.08,0,0,1-24.4-2c-12.47-4-24.94-7.95-37.36-12.07-2.64-.88-3.63-.52-4.28,2.37q-15.36,68.44-28.81,137.28c-5.77,29.63-11.51,59.26-14.4,89.36a100.79,100.79,0,0,1-3.25,17.26c-1.59,5.68-4.3,7.86-9.91,7.63-8.48-.36-16.94-.08-25.41.38-5.91.33-11.76.22-16.44-4.34a4.16,4.16,0,0,0-2-1c-4.37-.84-5.83-3.8-5.94-7.84,0-.88-.11-1.75-.2-2.62-.07-.6-.1-1.33-.9-1.35-.15,0-.46.8-.48,1.25-.41,7.34-5.68,12.27-9.1,18.09-1.83,3.12-5.17,4.09-8.75,4.14-5.28.08-10.42-.91-15.57-1.93-3.22-.64-6.21-1.65-9,1.86-1.83,2.31-5.4,1.34-8.24,1.34-9.38,0-12.63-3.17-12.92-12.52-.43-14.24.44-28.45.89-42.67Q358,498.34,360.14,431.54ZM228.68,466.29c-.5-4-1-7.91-1.51-11.87q-6.28-47.67-12.56-95.34c-1.9-14.47-3.85-28.93-5.58-43.42-.41-3.49-2.91-2.58-4.69-2.65-2.26-.08-1.44,1.9-1.27,3.09,2,14.08,4,28.16,6.17,42.2q6.72,42.32,13.7,84.57c2.53,15.54,5.13,31.06,7.69,46.59l.58-.08q-1.28-11.5-2.54-23ZM8.17,89.42h0a20.56,20.56,0,0,1-.31,3.35c-1,4,.63,6.78,3.49,9.48,5.08,4.8,10.49,9.19,15.88,13.6,1.85,1.51,3.69,2.77,6.29,2.87,2.24.09,4.27,1.37,4.22,3.9s1.53,3.5,3.12,4.6c7.19,5,15,8.88,22.71,12.95,6.75,3.57,13.53,7,21.2,8.09,34.31,5,68.61,10,102.93,14.9q42.6,6,85.26,11.71c18.65,2.53,37.33,4.9,56,7.32,2.24.3,4.56.51,6.48-1,3.56-2.8,7.64-4.69,11.58-6.83,9.17-5,15.47-12,16.37-22.93,1-12.67,1.15-25.42,3.44-38,.26-1.44.56-3.06-.59-4.3-2.7-2.92-1.78-6-.5-9.09a55.15,55.15,0,0,0,3.53-12.18c1.42-8.5-.43-11-9-12.3-42.54-6.38-85.18-12.18-127.63-19.17C197,50.52,161.43,43.82,126.28,35.23c-14-3.43-27.95-5.18-42.35-.4C61.08,42.4,39.1,51.54,19.35,65.47,13,70,8.19,75.65,8.52,84.19A48.35,48.35,0,0,1,8.17,89.42ZM334.41,233.57h.27a77.88,77.88,0,0,1-.06,8.23c-.38,3.48.77,4.45,4.3,4.24,45.59-2.77,91.19-5.37,136.78-8.12,6-.35,12-.37,17.86-1.67,7.37-1.64,13.16-6.4,19.49-10,18.26-10.5,36.56-21,52.38-35.11,7.71-6.89,15.32-13.9,20.7-22.94,1.3-2.18,1.11-3.53-.9-5-5.32-3.91-10.73-7.73-15.8-12-8.77-7.31-19.47-11.38-28.92-17.62-16.72-11-34.69-18.36-55.35-11.45a5.83,5.83,0,0,1-1.11.17c-34.9,5.42-70,9-105.06,13.36-8.35,1-6.82-.8-7.42,7.68-.07,1-.14,2-.14,3q-.17,25.43-23.3,36a26.15,26.15,0,0,0-6.41,3.82c-4,3.49-8.5,4.41-13.57,3.73-13.22-1.76-26.47-3.36-39.67-5.28-3.41-.49-4.58-.29-2.59,3.2a2.85,2.85,0,0,1,.06,2.51c-2.56,3.57-1.52,7.69-2.08,11.56-.44,3.07.84,4,3.69,4.58,12,2.24,24.12,4,36.26,5.47,6.92.82,9.56,3.78,10.5,10.85C334.8,226.28,334.41,230,334.41,233.57Zm33.13,197.49q-1,34.23-2,68.46-.9,29.38-1.89,58.75c-.57,16.59-1.6,33.16-1.15,49.77.05,1.72-.08,3.91,2,4.39,2.46.56,5.55,1.68,7.4-.66,2.45-3.08,5.39-3.32,8.7-2.85,5.68.81,11.33,1.79,17,2.59,1.83.25,4.17.79,5.34-.8,3.22-4.38,6.8-8.68,8-14.15a110.35,110.35,0,0,0,1.46-11.51c.54-5,1.21-9.88,4.75-13.87,1.49-1.68,1.57-3.87,1.49-6q-.76-22.07-1.49-44.14c-1.64-48.93.28-97.83,1.76-146.72q1.83-61,2-122c0-3.34-1.18-3.84-4.16-3.63-14.31,1.06-28.63,2-43,2.73-3.17.16-3.8,1.13-3.85,4.12C369.09,314,369.34,372.54,367.54,431.06Zm60.75-141.73H428v17.22c0,3.36-1,7.26.34,9.94,1.54,3,6.11,2.61,9.36,3.68,41.21,13.52,82.47,26.9,123.66,40.48,10.66,3.52,21.27,6.2,32.63,4.21,12.89-2.27,25.69-4.93,38.35-8.27,5.24-1.39,10.28-3,14-7.29a6.66,6.66,0,0,1,5.08-2.06c3.87,0,6.91-1.95,10-3.83,4.6-2.83,5-4,2.24-8.73-6.94-11.95-13.89-23.89-21.45-35.48-6.85-10.52-14.29-19.08-27.47-23.49-34.24-11.47-67.82-24.9-101.64-37.61-1.87-.7-3.46-1.14-5.27.08-7.27,5-15.54,6.32-24.14,6.74-17.44.87-34.88,2-52.33,2.84-2.31.12-3,.92-2.94,3.14.09,5.19.23,10.38,0,15.59C428,274.09,428.29,281.72,428.29,289.33Zm-206.2,25.23c-5.76-.28-5.74-.28-5,5.55q2,15.58,4,31.16c5.1,39.33,10.31,78.65,15.25,118,2.75,22,4.91,44.11,7.58,66.14,2.24,18.55,5.25,37,7.08,55.6.8,8.14,3.26,14.75,8.91,20.61,3.27,3.38,6.64,5,11.22,4.37,10.55-1.49,20.92-4.21,31.79-3.54,4.71.29,5.48-1.16,5-6-2.5-25.31-4.53-50.7-7.78-75.92-4-31-9.09-61.93-13.57-92.91-5.58-38.49-11-77-15.15-115.7-.28-2.61-1.3-3.48-3.89-3.77C252.46,316.45,237.27,315.57,222.09,314.56Zm105-76.68c0-3.25,0-6.49,0-9.74-.1-8.22-.1-8.31-8.32-9.4-32.38-4.3-64.33-11.3-96.84-14.85-18.94-2.07-37.76-5.22-56.65-7.81-7.83-1.07-13.23,3.36-13.58,11.08-.49,10.48-.11,21,0,31.44.07,7.35,2,13.7,7.5,18.82,11.62,10.89,12,24.52,9.07,38.78-.5,2.43-.23,3.12,2.08,3.84,9.74,3,19.91,3.16,29.87,4.68,17.29,2.64,34.8,2.93,52.2,4.42,12.54,1.08,25,2.77,37.64,3.23,2.36.08,4.9.5,6.94-.92,6.38-4.43,13.56-7.4,20.14-11.45,3.22-2,5.57-4.61,5.91-8.57.38-4.35,1.89-9,.78-13-2.14-7.59-.14-14.2,2-21.23C327.59,251,327.17,244.37,327.06,237.88ZM162,283.76c.82-7.75-1.74-14.19-7.19-19.69a72.61,72.61,0,0,1-6.35-7.81c-.93-1.25-1.55-1.86-2.8-.39a6.82,6.82,0,0,1-2.16,1.4c-18.38,9.19-36.44,19-54.31,29.16-13.53,7.68-27.45,14.73-40.16,23.81-2.78,2-5.08,4.34-6.14,7.75-4.53,14.59-7,29.57-8.67,44.72a9.49,9.49,0,0,0,4,9.09c4.47,3.5,9.65,5.7,14.61,8.28,13.83,7.18,27.71,14.24,42.39,19.59,5.16,1.89,10,2.45,15-.8,2.69-1.76,5.8-2.87,8.65-4.41,10.75-5.79,21.44-11.69,32.22-17.44,3.48-1.85,5.74-5.27,9.14-7,12-6.14,24-12.18,36.2-17.88,3.3-1.55,3.89-3.27,3.35-6.55-1.55-9.6-3.07-19.22-4-28.89-.43-4.27-2.15-5.94-6.17-5.82a13,13,0,0,1-1.87-.12c-8-.94-16.11-1.86-23.71-5-4.13-1.7-6.05-5-4.27-8.53C161.92,292.88,161.81,288.31,162,283.76Zm264,294.62c.51,7,.95,13.11,1.43,19.2.07.85,0,1.95.87,2.37,4.71,2.26,8.58,6.32,14.7,5.44,5.28-.77,10.71-.56,16.07-.62,2.47,0,4.64-1.58,7.32-.76,5.23,1.61,5.58,1.24,6.72-4,3.37-15.52,4.07-31.41,6.52-47,4.94-31.55,11.71-62.77,17.83-94.1,6.59-33.77,14.09-67.36,21.82-100.9.45-2,.3-3.06-2-3.8q-17.31-5.43-34.46-11.32c-2.66-.91-3.12-.07-3.59,2.28-1.85,9.17-3.87,18.31-5.92,27.43q-12.07,53.83-24.23,107.65c-6.68,29.56-12.77,59.26-20.51,88.58C427.67,572.27,426.08,575.61,426.05,578.38ZM225.78,614.21c5.57,1.61,8.84-3.52,13.5-4.56,1.25-.28.9-1.92.68-3-2.69-13.34-3.78-26.89-5.28-40.39C231,533.39,224.62,501,219.51,468.31c-5.56-35.59-11.62-71.11-17.33-106.68-.46-2.89-1.17-3.33-3.7-2q-15,7.63-30,15c-2.21,1.09-2.71,2.53-2.3,4.78.84,4.66,1.53,9.34,2.29,14,5.46,33.46,10.82,66.95,15.16,100.58,3.07,23.74,6.94,47.38,9.13,71.23,1.24,13.42,1.94,26.88,3.78,40.23.91,6.61,1,6.59,7.52,6.21a5.24,5.24,0,0,1,1.86.1C212.37,613.87,219.21,613.12,225.78,614.21ZM424.22,451.27c0,22.82-.16,38.18,0,53.53.17,13,.77,25.95,1.2,38.92,0,.71-.27,1.87.48,2,1.24.18.85-1.15,1-1.84.9-3.5,1.79-7,2.58-10.53q15.93-71.19,31.83-142.39,5.39-24.1,10.71-48.21c.35-1.59.91-3.19-1.43-3.91-13.48-4.11-26.65-9.14-40.23-12.92-2.3-.64-2.87,0-2.88,2.23,0,5.11-.16,10.23-.31,15.34C426.18,381.89,425.09,420.31,424.22,451.27Zm-1.74-345.44H423c0-3.37-.06-6.74,0-10.1.22-11.8-10.46-21.83-22.22-20.44-7.23.86-14.21,4-21.72,2-1.16-.31-2.78,0-2.41,1.89,1.57,8-.8,15.29-3.49,22.58-.39,1.06-.9,2.25-.06,3.2,1.9,2.14,1.58,4.67,1.33,7.12-.45,4.59-1,9.17-1.7,13.72-.39,2.42.17,3.12,2.66,2.81q22.09-2.76,44.22-5.24c2.33-.26,2.9-1.21,2.86-3.29C422.42,115.3,422.48,110.56,422.48,105.83ZM202.94,7.63c-14.68,0-23,9.31-21.45,22.42a54.61,54.61,0,0,1,.86,7c0,2.33,1.11,3,3,3.32q25.7,4.91,51.51,9c2.18.35,3.23.2,2.89-2.52-1.2-9.64-2.07-19.32-3.3-29-.68-5.38-4.14-7.65-9.55-7a9.57,9.57,0,0,1-3.68-.36C216.14,8.62,208.8,8.27,202.94,7.63Zm53.73,190.28c-.59-5.31-1.2-10.38-1.69-15.47-.17-1.77-.81-2.55-2.7-2.8q-25-3.34-50.06-6.92c-2.1-.29-2.71.27-2.45,2.32.59,4.7,1.32,9.41,1.5,14.14.14,3.49,1.69,4.47,4.9,4.94,15.79,2.36,31.6,4.58,47.45,6.52C256.1,201,257.68,200.76,256.67,197.91Zm292.09,20.88c0-3.08-1.56-4.3-3.63-3.06-8.22,4.92-16.39,10-24.61,14.89-1.83,1.1-1.46,1.72.25,2.34,7,2.59,14,5.17,21,7.8,1.35.51,2.2.31,2.51-1.15C545.83,232.56,547.33,225.49,548.76,218.79ZM277.12,187.24c.82-3.28-1.11-4.9-5-5a37.45,37.45,0,0,1-6.66-.84c-2.77-.62-3.24.51-2.84,2.94.52,3.19.84,6.42,1.22,9.63,1,8.52,1,8.52,9.27,9.77.25,0,.5,0,.74.09,1.62.3,2.55,0,2.59-2C276.54,197.19,276.86,192.59,277.12,187.24Z"/><polygon class="cls-1" points="137.88 487.73 137.73 487.69 137.89 487.66 137.88 487.73"/><path class="cls-1" d="M229.93,100.78s1.55.29,1.88-.2c.77-1.16-.68-1.94-1.3-2.77-3.42-4.59-6.95-9.1-10.41-13.67-.5-.64-1.43-1.4-.68-2.23.34-.37,1.4-.18,2.1-.08q13.69,2.07,27.37,4.2c1.4.21,2.94.53,2.51,2.46-.39,1.77-1.88,1.23-3.07,1.05-5.8-.87-11.59-1.78-17.39-2.63-.94-.14-2.2-.68-2.75.26s.76,1.41,1.25,2.06c4.62,6.18,9.44,12.22,14,18.46,6.19,8.54,3.09,18.72-6.73,22.63s-22.49-2.09-24.5-11.81c-1.92-9.32,4.84-17.15,15.32-17.72C228,100.76,228.5,100.78,229.93,100.78Zm.19,27c6.94-.06,12.38-5.08,12.26-11.32-.13-6.56-6.28-11.94-13.71-12s-12.74,5-12.59,11.74C216.21,122.65,222.54,127.86,230.12,127.81Z"/><path class="cls-1" d="M96.49,105.15c5.36,0,8.92-2.82,10-8.18.9-4.39,1.57-8.83,2.25-13.26.26-1.68.66-2.93,2.77-2.51s1.56,1.94,1.36,3.23c-1.18,7.64-2.41,15.27-3.63,22.9-.17,1.08,0,2.49-1.48,2.69-1.17.15-2.61.24-3-1.45-.34-1.42-1.21-1.26-2.28-.86a16.61,16.61,0,0,1-17.19-2.94c-1.79-1.46-1.82-.13-2,1-.62,3.43-1.23,6.87-1.69,10.33-.21,1.56-.52,2.54-2.44,2.43-2.31-.12-1.82-1.69-1.63-2.93,1.36-9,2.8-18,4.2-27,.49-3.08,1-6.15,1.42-9.23.21-1.36.59-2.41,2.31-2.26,1.91.17,2.21,1.4,2,2.9-.64,4.07-1.21,8.15-2.07,12.17C83.65,100.19,90.47,105.41,96.49,105.15Z"/><path class="cls-1" d="M134.36,114.88c-10.08-.17-18-6.78-18.42-15.07-.36-6.15,2.4-10.56,7.6-13.51,6.76-3.84,16.68-2.54,22.34,2.77a4.61,4.61,0,0,1,1.89,3.11c.07,1.35.42,3.15-.93,3.74s-1.48-1.3-2.12-2.11c-5.5-7-15.48-8-21.44-2.23-.88.86-2,1.78-1.59,3.16s1.89.89,2.91,1.06c4.18.7,8.37,1.33,12.56,2,1.29.2,2.61.46,2.41,2.19-.22,1.92-1.61,1.9-3.08,1.66-4.19-.66-8.37-1.35-12.57-1.92-1-.14-2.42-.92-3.14.21s-.16,2.6.52,3.87c3.88,7.18,13.65,9.35,20.72,4.65.9-.59,2-2.62,2.88-1.31a3.63,3.63,0,0,1-1.06,5A15.46,15.46,0,0,1,134.36,114.88Z"/><path class="cls-1" d="M198.32,126.17c-11.37-.07-19.09-6.87-19.09-16.1a13.22,13.22,0,0,1,6-11.4c7.17-5,18.29-3.91,24.43,2.34a3.7,3.7,0,0,1,1.37,3.28c-.16,1.07.31,2.6-.9,3-1.43.49-1.61-1.24-2.21-2a14.38,14.38,0,0,0-21.09-2.48c-1,.82-2.06,1.66-1.69,3.08s1.79,1.13,2.83,1.3c4.18.69,8.37,1.3,12.55,2,1.2.2,2.65.34,2.45,2.15s-1.62,1.92-3.07,1.69c-4.17-.68-8.33-1.44-12.52-2-1.11-.15-2.63-.86-3.39.6-.62,1.19,0,2.43.55,3.56,3.48,7,14.13,9.72,20.32,5.12,1.1-.81,2.59-3,3.43-1.65,1.08,1.66.39,4.19-1.77,5.45A14.91,14.91,0,0,1,198.32,126.17Z"/><path class="cls-1" d="M159.27,108.76c-.1,5.47,3.34,9.55,8.94,10.88,2.91.69,5.91,1,8.79,1.79,3.4.94,4.92,3.87,4.11,7.31a5.84,5.84,0,0,1-6.71,4.55c-1-.12-2.12-.11-2.09-1.52a1.56,1.56,0,0,1,1.73-1.59c2.09,0,3.87-.61,3.82-3.06-.06-2.64-2.33-3-4.27-3.3-5.19-.8-10.38-1.45-14.26-5.64a11.43,11.43,0,0,1-3.48-8.4c.25-5.85.72-11.72,2.83-17.27a29.77,29.77,0,0,1,2.09-3.94c.86-1.53,6.14-3.13-.12-4.52-.68-.15-.61-1-.52-1.62.15-1,1-1.12,1.69-1,5.8.85,11.59,1.72,17.37,2.67A1.49,1.49,0,0,1,180.56,86c-.24,1.07-1.12,1.23-2.05,1.14a32.93,32.93,0,0,0-5.55-.51c-6.63.56-10.16,3.7-12,10.38C159.85,101,159.75,105.1,159.27,108.76Z"/><path class="cls-1" d="M266.75,106.8c3.93-.22,7.93,1.31,11.57,4a8.33,8.33,0,0,1,2.66,3.09c.77,1.6.5,3.68-.54,4.51s-1.74-1.22-2.48-2.08c-6.25-7.21-15.83-8-21.62-1.72-.78.84-1.8,1.76-1.58,2.84.29,1.44,1.86.79,2.86,1,4.3.76,8.61,1.42,12.93,2.08,1.41.22,2.93.32,2.53,2.34s-1.88,1.69-3.27,1.47c-4.19-.66-8.37-1.37-12.56-2-1.08-.16-2.48-.66-3.17.33s-.12,2.38.43,3.53c3.62,7.59,14.24,9.9,21.55,4.67.68-.48,1.26-1.64,2.16-1,1.08.74.63,2,.36,3.1a3.48,3.48,0,0,1-1.87,2.24,19,19,0,0,1-19.59-.64c-5.89-3.54-8.48-8.86-7.39-15.84C250.8,111.81,257.74,106.73,266.75,106.8Z"/><path class="cls-1" d="M294.16,141.67c-6,0-9.08-2.67-8.21-6.2.14-.58.36-1.43.76-1.59.77-.31.72.73,1.11,1.12s1,1.14,1.56,1.61c1.8,1.51,4.1,2.19,5.72.42,1.81-2-.1-3.59-1.7-4.86a77.54,77.54,0,0,1-7-5.58c-5.14-5.2-3.2-12.64,3.78-14.74a13,13,0,0,1,12.94,2.63c1.09.94,2.06,2.06,1.94,3.45s.28,3.22-1.1,3.64c-1.13.34-1.14-1.57-1.72-2.43a8.87,8.87,0,0,0-6.44-4c-3.21-.42-6.23.38-7.75,3.3s1,4.91,2.86,6.65c2.24,2.14,4.94,3.79,7.2,5.9a5.9,5.9,0,0,1,1.6,7.17A6.22,6.22,0,0,1,294.16,141.67Z"/><path class="cls-1" d="M188,67a13,13,0,0,0-3.1.73c-2.95,1.38-6,1.45-9.17,1.29-1.48-.08-4,.48-4-1.51,0-1.42,2.23.15,3.49-.08,2.69-.49,5.43-.69,8.12-1.2a34.84,34.84,0,0,1,7.06-.61c1.48,0,2.72.42,3.23,2s-.38,2.32-1.36,3.18c-.7.61-2.11,1-1.54,2.21.41.85,1.61,1.11,2.63,1.18a35.34,35.34,0,0,0,7.82-.42,34.48,34.48,0,0,1,6.33-.41,5.45,5.45,0,0,1,5.13,3.13,7.79,7.79,0,0,1,.32,2.14,17.91,17.91,0,0,0-1.18-1.54A7.69,7.69,0,0,0,204.94,75c-3.33.41-6.66.94-10,1.14-1.94.12-4.12,0-5.22-2.09s.3-3.45,2-4.55c.56-.37.95-.93.39-1.53C191.09,66.92,189.77,67.11,188,67Z"/><path class="cls-1" d="M212.37,81a8.46,8.46,0,0,1-3.8,2.78c-2.8,1.26-6.63,1-7.56,5.09,0,.13-.31.21-.48.31-.15-.31-.46-.65-.42-.93a4.93,4.93,0,0,1,2.72-3.8c2.87-1.44,6.26-1.75,8.76-4C212.06,80,212.46,80.21,212.37,81Z"/><path class="cls-1" d="M543.11,163.32c4.58-.22,9,.35,12.77,3.2a9.44,9.44,0,0,1,2.8,12.28c-7.1,12.63-26.5,15.12-36.47,4.71a11.94,11.94,0,0,1-3.48-9.12c.14-3.43.48-6.41,5.24-6.91,3.21-.34,6.17-2.5,9.49-3.21A54,54,0,0,1,543.11,163.32Z"/><path d="M399.72,190.28c-.28-7.94,2.43-12.7,8.57-15.41,6.81-3,14.62-1.8,19.46,3.1a12,12,0,0,1,3.05,12.77c-1.89,5.68-6.24,9-12,10-4.08.71-8.24.59-12-1.74-2.65-1.67-2.83-.39-2.54,1.95.37,3.09.48,6.21.77,9.31.12,1.3.41,2.59-1.46,2.79s-2.24-1.06-2.28-2.59c0-1-.2-2-.28-3C400.56,201.63,400.13,195.78,399.72,190.28Zm15.56,7.59c7.16-.05,12.56-4.86,12.47-11.12-.07-5.61-5.58-10.38-12-10.42s-12.5,5.27-12.45,11C403.32,193.47,408.39,197.92,415.28,197.87Z"/><path d="M434.13,184.93c-.07-7.21,3.33-11.91,9.6-13.21,1-.22,2.25-1,2.77.73s-.54,2-1.89,2.49c-6.26,2.11-8.64,7.3-6.39,13.61,2.39,6.67,10.77,8.33,15.22,2.8,1.51-1.88,2.08-1.61,3.67-.28a9.16,9.16,0,0,0,11.13.65c3.28-2.11,4.47-5.78,3.45-10.62-1-4.63-3.33-7-7.58-7.58-1.46-.19-3.37.19-3-2.14s2.37-1.39,3.63-1.21c7.74,1.06,12.26,8.73,10.29,17.28-1.67,7.27-8.74,11-16.32,8.34a6.69,6.69,0,0,0-5.92.44C443.35,201.08,434.24,195.51,434.13,184.93Z"/><path d="M397.83,195.31c.11,1.37.21,2.74.34,4.1s.08,2.64-1.67,2.73-2-1-2.1-2.46c-.37-5.47-1-10.93-1.14-16.4-.09-2.92-.88-4-3.93-3.63-4.82.6-9.67,1-14.52,1.18-2.4.09-2.93,1-2.71,3.19.55,5.58.93,11.17,1.33,16.76.09,1.38.81,3.23-1.7,3.27-2.12,0-1.76-1.58-1.86-2.92-.51-6.83-1-13.66-1.59-20.48-.21-2.34.39-3.27,3-3.39,7.21-.36,14.42-.9,21.6-1.7,3-.34,3.69.74,3.83,3.35.28,5.47.75,10.94,1.14,16.41Z"/><path d="M503.82,194.3c-.32-.44-.7-.91-1-1.42q-7.26-11-14.51-22.07c-.51-.77-1.7-1.65-.5-2.51a2.39,2.39,0,0,1,3.59.66c1.95,2.88,3.84,5.8,5.76,8.7,1.71,2.59,3.39,5.21,5.16,7.76,1,1.48,1.79,2.23,2.8-.29,2.22-5.52,4.79-10.91,7.29-16.31.45-1,.7-2.17,1.77-2.77a2.06,2.06,0,0,1,2.14-.09c.85.52.51,1.22.19,1.94-3.72,8.27-7.41,16.55-11.17,24.81C505.05,193.27,504.93,194.17,503.82,194.3Z"/><path d="M479.45,176.53c-.16-2-.28-4-.5-5.93-.14-1.29.51-1.82,1.63-2s1.74.18,1.83,1.28q1.05,11.87,2,23.72c.11,1.39-1,1.55-2,1.58-1.61.06-1.68-1.21-1.77-2.31-.41-5.44-.77-10.89-1.16-16.33Z"/><path class="cls-1" d="M536.9,144.68a28.18,28.18,0,0,1-11.73,3.68c-1.38.13-2.82.11-3.51-1.4a3,3,0,0,1,.71-3.7c.83-.75,1.21-1.55.38-2.53l.65-.48c2.16.91,1.3,2.57.55,3.65-2.11,3.06.07,3.21,2,2.83,3-.59,5.95-1.69,8.91-2.58.57-.17,1.1-.62,1.74-.22C536.7,144.18,536.8,144.43,536.9,144.68Z"/><path class="cls-1" d="M539.94,143.94c4,1.11,5,4.83,2.14,7.78-2.41,2.47-7.09,2.45-7.65,7,0,0-.46.14-.5.08a1.37,1.37,0,0,1-.22-.69,4.29,4.29,0,0,1,2-3.79c1.21-.87,2.53-1.6,3.82-2.35,4.48-2.6,4.6-4.54.45-7.38A.63.63,0,0,1,539.94,143.94Z"/><path class="cls-1" d="M519.68,140.8a36.73,36.73,0,0,1-9.92,4.81,6.57,6.57,0,0,1-4.74-.12,1.26,1.26,0,0,1-.6-.83c-.12-.52.39-.58.71-.55,5.32.42,9.49-3.33,14.5-4A1.36,1.36,0,0,1,519.68,140.8Z"/><path class="cls-2" d="M519.68,140.8a1.36,1.36,0,0,0,0-.69,5.55,5.55,0,0,1,3.77.14l-.65.48Z"/><path class="cls-2" d="M539.94,143.94a.63.63,0,0,0,0,.61l-3,.13c-.1-.25-.2-.5-.31-.75A5.48,5.48,0,0,1,539.94,143.94Z"/><path class="cls-1" d="M614,339.43c-10.37-.18-20.12-6.39-23.41-15-1.56-4.13-1.73-8.27.61-12.23,1.61-2.72,3-5.17,7.23-3.59,2.65,1,5.93.14,8.88.53,7.24.94,14.24,2.95,20,7.57,8.78,7.05,7.29,16.63-3.08,20.95A23.78,23.78,0,0,1,614,339.43Z"/><path d="M516.17,263c10.28-.06,18.17,6,19.06,14.79.41,4.11-1.21,7.84-2.43,11.62-2.32,7.24-4.76,14.44-7,21.69-.53,1.68-.78,3.14-3.16,2.3-2.58-.9-.91-2.53-.6-3.64,1.12-4,2.49-7.84,3.8-11.74a10.67,10.67,0,0,0-6.62-13.31c-5.7-2.14-11.61,0-13.74,5.42-1.74,4.39-3.09,8.95-4.42,13.49-.47,1.61-1,2.45-2.78,1.94s-1.5-1.78-1.11-3c1.65-5.1,2.95-10.36,5.13-15.22,3.74-8.34,16.92-9.53,24.08-2.12,2.69,2.78,3.09,2,3.95-1,1.87-6.48.7-11.27-3.95-14.73-5-3.73-13-3.91-17.87-.36-.59.43-1.15,1.27-1.86.77s-.21-1.33,0-2C507.63,264.64,510.83,263,516.17,263Z"/><path d="M501.1,276.75c-.52.58-1.13,1.35-1.83,2-5,4.8-9.95,9.76-15.23,14.28a19.53,19.53,0,0,0-6.46,10.57c-.48,1.92-1.27,3.77-1.83,5.68-.4,1.36-1.18,1.83-2.51,1.39a1.87,1.87,0,0,1-1.31-2.64,33.06,33.06,0,0,1,1.62-5c2.38-4.76,1.86-9.57.79-14.51-1.36-6.33-2.53-12.7-3.68-19.07-.18-1-1.59-2.72.39-3.06,1.74-.3,3.23.67,3.6,2.91q1.26,7.74,2.91,15.41c.51,2.38-.08,6.11,1.89,6.77s3.71-2.69,5.51-4.31q6-5.34,11.76-11a3.05,3.05,0,0,1,3.39-.69C500.58,275.72,501.11,275.82,501.1,276.75Z"/><path d="M548.82,321.53c-11.34.09-18.83-10.27-14.58-19.54,1.7-3.7,2.65-7.76,3.78-11.7.44-1.52,1.07-2.06,2.65-1.66,1.76.46,1.66,1.57,1.24,2.87-1.35,4.14-2.8,8.25-4.06,12.41-2,6.47.69,11.6,6.88,13.52,6.36,2,11.79-.68,13.92-6.9,1.33-3.88,2.45-7.84,3.78-11.72.4-1.18.58-2.81,2.7-2.2,2.29.64,1.61,2,1.14,3.47-1.31,4.15-2.53,8.33-3.9,12.46C560.38,318.56,555.8,321.54,548.82,321.53Z"/><path d="M571.44,316.31a17.41,17.41,0,0,0-.74,1.64c-.81,2.48-1.72,4.95-2.34,7.48-.42,1.74-1.23,2.27-2.9,1.84-1.84-.47-1.47-1.58-1.05-2.88,2.54-7.81,5.09-15.62,7.5-23.47.48-1.54,1.31-1.59,2.5-1.35,1.45.3,1.54,1.22,1.38,2.53-.21,1.83-2.54,4-.51,5.33,1.35.92,3.37-1.13,5.15-1.51,3.05-.65,5.88-3.11,9.29-1.33.49.25,1.44,0,1.37.77,0,.42-.82.92-1.36,1.12-4.21,1.54-8.37,3.24-12.68,4.42-2.88.79-2.49,1.94-1.35,3.88,3.15,5.35,6.2,10.75,9.31,16.12.43.75,1.26,1.53.62,2.33-.86,1.1-1.75,0-2.63-.3-1.75-.52-2.49-2-3.29-3.37-2.25-3.87-4.47-7.76-6.69-11.63C572.65,317.29,572.42,316.53,571.44,316.31Z"/><path class="cls-1" d="M598.18,280.34c-2.6-.22-5.2-.41-7.8-.68-1.46-.15-2.55-1.41-2.17-2.46.45-1.25,1.71,0,2.5.31,3.49,1.44,7.14.76,10.72,1a28.5,28.5,0,0,1,4.82.4c1.49.36,3.32.57,3.52,2.74.16,1.85-1,2.59-2.47,3.26-2.69,1.23-1.45,2.28.28,3.16,3.6,1.81,7.57,1.14,11.37,1.61,2.54.31,4.9.89,6.62,2.94a1.63,1.63,0,0,1,.33,1.33c-.31.73-.81.19-1.11-.1-3.41-3.34-7.85-2.67-12-3a16.68,16.68,0,0,1-5.8-1.19c-3.29-1.51-3.4-4.09-.37-6.16.57-.39,1.67-.25,1.6-1.25s-1.09-1.2-1.89-1.5C603.68,279.74,600.93,280.12,598.18,280.34Z"/><path class="cls-1" d="M624.53,299.42c-.57.29-1.2.63-1.85.94-3.37,1.61-8.34-.86-10.41,4.1,0,0-.5-.07-.52-.16a1.81,1.81,0,0,1,0-1.05,5.38,5.38,0,0,1,3.16-2.95c2.87-.79,5.94-.49,8.73-1.7C624.16,298.36,624.52,298.57,624.53,299.42Z"/><path class="cls-1" d="M258.16,253.84a13.21,13.21,0,0,1-11.72,13c-3.93.51-5,2.19-5,5.64a20.28,20.28,0,0,1-.54,3.69,1.71,1.71,0,0,1-2.07,1.62c-1.18-.15-2.07-.88-1.66-2,2.47-6.65-1.16-9.68-6.15-13.5-7.62-5.83-5.41-17.17,3.44-21a32.57,32.57,0,0,1,9.58-2.67c2.42-.25,4.32,2.12,6.45,3.29C255.09,244.39,257.93,248.35,258.16,253.84Zm-3.87-.13a11.13,11.13,0,0,0-4.75-8.52c-2.15-1.66-3.81-1.62-4.29,1.61q-1.12,7.53-2.38,15c-.28,1.68.31,2.25,2,2.11A10.73,10.73,0,0,0,254.29,253.71Zm-12.89-7c.1-2.2.82-4.1-2.11-3.62a11.07,11.07,0,0,0-8.74,8.12c-.78,3.7,1.58,8.83,5,10.85,2,1.18,3.43,1.19,3.8-1.65C240,255.66,240.78,250.89,241.4,246.75Z"/><path class="cls-1" d="M207.2,234.31a17.19,17.19,0,0,1,10.55,3.81c1.18.89,2.33,2.08,3.31-.32.35-.85,1.41-.93,2.32-.54s1,1.35.86,2.22q-1.58,10.89-3.21,21.78c-.15,1-.46,2-1.79,1.94-1.13,0-2.05-.48-2.05-1.69,0-2.33-1-1.47-2.3-1-4.16,1.52-8.36,2.09-12.75.54-7-2.47-11.68-9-10.66-15.21C192.63,238.8,198.73,234.17,207.2,234.31Zm.55,24.17c6.35,0,11.32-4.37,11.37-9.93,0-5.88-5.68-11-12.29-11s-11.66,4.54-11.6,10.18C195.29,253.65,201,258.5,207.75,258.48Z"/><path class="cls-1" d="M275.82,244.57c4.18-.25,8,1.41,11.24,4.38.82.74,1.75,1.51,1.81,2.74s.17,2.59-.81,3.09-1.54-1-2-1.63c-5-7.27-15.86-6.37-19.68-1.63-.61.76-1.66,1.35-1.25,2.5s1.65.9,2.58,1c3.69.56,7.4,1.06,11.09,1.61,1.38.2,2.92.34,2.58,2.36s-1.76,1.31-2.93,1.15c-3.95-.56-7.9-1.12-11.84-1.72-2.4-.36-2.79.55-2.12,2.73,2.16,7,12.35,9.92,19.2,5.42.84-.55,1.68-2.34,2.65-1.24s.34,2.84-.67,4.08a3.35,3.35,0,0,1-.57.49c-4.28,3.32-13.72,2.8-19.1-1.05-4.85-3.49-7.18-10-5.4-15.21C262.51,248.08,268.44,244.46,275.82,244.57Z"/><path class="cls-1" d="M174.06,233c.12,1.5-.83,2.69.3,3.31.94.52,1.83-.46,2.69-.89,2.56-1.26,4.83-3.14,7.7-3.71.92-.19,2.17-.36,2.56.85s-.86,1.3-1.54,1.7c-3,1.74-6,3.53-9.1,5.11-1.92,1-1.89,1.85-.6,3.4,3.59,4.3,7,8.71,10.57,13.06.47.57,1.21,1.08.66,1.89s-1.31.53-2.05.33a5.31,5.31,0,0,1-3-2c-2.37-3-5-5.91-7.41-8.88-.56-.68-1-1.73-1.89-1.61-1.13.14-.75,1.4-.9,2.18-.37,1.83-.54,3.69-.88,5.53-.23,1.29-.71,2.48-2.39,2.23s-1.49-1.49-1.34-2.6c1-7.15,2.05-14.3,3.08-21.46.19-1.31.93-2.05,2.3-1.82C175.59,230.1,173.56,232.27,174.06,233Z"/><path class="cls-1" d="M300.75,248.39c5.73-.09,9.8,3,9.39,7.06-.08.83-.33,2.3-.63,2.34-1.1.13-1-1.13-1.44-1.84-1.93-3.44-5.05-5-8.73-4.14-1.79.41-3.66,1-4.3,3.06s.31,4,1.86,5.32c1.87,1.64,4,3,5.92,4.55,3.33,2.69,4.33,6.32,2.5,8.78-2,2.72-7.56,3.08-10.58.76a3.27,3.27,0,0,1-1.59-3.14c.09-.71-.13-1.61.74-1.92s.88.64,1.29,1a11.18,11.18,0,0,0,2,1.64c1.71,1,3.63.88,4.75-.63s-.4-2.74-1.55-3.67c-1.55-1.24-3.22-2.34-4.8-3.55-3.74-2.84-5.47-6.71-4.47-9.93S296,248.46,300.75,248.39Z"/><path class="cls-1" d="M282.32,224.21c-2.4.35-4.86.75-7.33,1.08a14.31,14.31,0,0,1-5.57-.14c-3.23-.85-4-3.47-1.66-5.86.56-.59,1.91-.69,1.56-1.8s-1.62-.94-2.57-1.07c-2.05-.29-3.91.53-5.82,1.09-3.22,1-6.49,1.87-9.89,1.17-1-.21-2.62-.75-2.4-1.89.28-1.48,1.67-.28,2.49-.19,3.69.39,7.17-.75,10.73-1.24a35.39,35.39,0,0,1,4.07-.52c1.72,0,3.7-.15,4.58,1.72s-.51,3-1.79,4.06c-1.55,1.34-1.25,2.15.77,2.7,3.53.94,6.94,0,10.37-.44a16.58,16.58,0,0,1,5.92.05c2.26.53,4,1.66,4.33,4,.41,2.53-.93,4.36-3.06,5.49a28.37,28.37,0,0,1-4.21,1.49,10.34,10.34,0,0,0-3.94,2c-.69.63-1.14,2.46-1.52,2-1-1.19.43-2.15,1.15-3.11a6.59,6.59,0,0,1,3.49-2,39.24,39.24,0,0,0,4.55-1.68c1.44-.72,3.05-1.67,2.58-3.62a4,4,0,0,0-3.77-3.08Z"/><path class="cls-1" d="M142.93,331a17.91,17.91,0,0,1-9.92-2.91,10.82,10.82,0,0,1-4.75-11c.13-.74.16-1.55.86-2,7.17-4.43,14.12-9.31,22.88-10.19a15.93,15.93,0,0,1,7.33,1,8.37,8.37,0,0,1,4.88,10.11C162.1,324.47,153,331.11,142.93,331Z"/><path d="M113.33,339.81a14.38,14.38,0,0,1-14.46,14.5c-7.91-.14-14.77-7-14.54-14.59a14.67,14.67,0,0,1,14.84-14.29A14.15,14.15,0,0,1,113.33,339.81Zm-25.4.16a11,11,0,1,0,22-.06,11.49,11.49,0,0,0-11.1-11.33C92.87,328.51,87.89,333.7,87.93,340Z"/><path d="M67.18,369.3c-1.21.05-1.63-.71-2-1.53-3.19-7-6.34-14.09-9.61-21.08-.77-1.64,0-2.33,1.22-2.9,6.47-2.94,13-5.83,19.42-8.79,1.7-.78,2.52-.06,3.17,1.42,3,6.73,6,13.43,9,20.16.48,1.09,1.37,2.45-.26,3.26-1.8.89-2.39-.64-3-1.9-2.4-5.34-4.91-10.64-7.11-16.06-1-2.44-2.19-2.56-4.27-1.55-3.81,1.86-7.62,3.76-11.57,5.28-2.54,1-2.45,2.14-1.45,4.22,2.57,5.4,4.95,10.89,7.42,16.33C68.77,367.57,69,368.82,67.18,369.3Z"/><path d="M128.83,337.81l1.7-.36c1.13-.24,2.08,0,2.29,1.24s-.78,1.61-1.77,2c-4.43,1.6-10-.73-12.24-5.28q-2.61-5.36-4.88-10.87c-.7-1.7-1.5-2.53-3.33-1.54a1.74,1.74,0,0,1-2.74-.91c-.56-1.38.68-1.69,1.53-2.08,3.38-1.58,6.77-3.15,10.2-4.61.94-.41,2.23-1.14,2.9.33s-.6,2.08-1.75,2.68c-4.68,2.43-4.67,2.45-2.39,7.48,1.18,2.6,2.37,5.2,3.53,7.81C123.2,336.65,125.59,337.8,128.83,337.81Z"/><path class="cls-1" d="M127.43,295.51c-3,0-4-1.39-3-4.32.27-.84,1.61-1.63.33-2.54-.91-.65-1.89,0-2.79.42-3.65,1.71-6.46,4.62-9.73,6.89a10,10,0,0,1-5.18,1.83,1.48,1.48,0,0,1-1.21-.65c-.28-.65.45-.75.85-.84,4.56-1.05,7.78-4.32,11.48-6.8A24.73,24.73,0,0,1,122.7,287a2.89,2.89,0,0,1,3.45.62,2.64,2.64,0,0,1,0,3.45c-.57.71-1,1.56-.45,2.38.71,1,1.78.61,2.75.37,2.86-.72,5-2.67,7.45-4.17.63-.39,1.18-.9,1.8-1.31,4-2.73,7.75-2.9,9.84-.45s1.1,6-2.61,9.37c-1.8,1.66-4.05,3.1-3.2,6.15.09.33.14.81-.39.71a1.09,1.09,0,0,1-.7-.73c-.17-2.26-.27-4.52,2-6a13,13,0,0,0,4.17-4.71c.6-1.08,1.48-2.09.57-3.41a3.63,3.63,0,0,0-3.63-1.44c-3,.31-5.31,2-7.66,3.61C133.43,293.29,130.84,295.27,127.43,295.51Z"/></g></g></svg>